<svg xmlns="http://www.w3.org/2000/svg" xmlns:xlink="http://www.w3.org/1999/xlink" width="1080" zoomAndPan="magnify" viewBox="0 0 810 809.999993" height="1080" preserveAspectRatio="xMidYMid meet" version="1.0"><path fill="#f0c363" d="M 798.640625 269.789062 C 797.042969 268.867188 795.355469 268.167969 793.574219 267.691406 C 791.792969 267.210938 789.980469 266.972656 788.136719 266.972656 C 786.292969 266.972656 784.480469 267.210938 782.699219 267.691406 C 780.917969 268.167969 779.226562 268.867188 777.628906 269.789062 L 594.363281 375.578125 L 594.363281 319.53125 C 594.363281 318.84375 594.328125 318.15625 594.261719 317.472656 C 594.191406 316.789062 594.09375 316.109375 593.957031 315.433594 C 593.824219 314.757812 593.65625 314.089844 593.457031 313.433594 C 593.257812 312.773438 593.027344 312.128906 592.761719 311.492188 C 592.5 310.855469 592.207031 310.234375 591.878906 309.628906 C 591.554688 309.019531 591.203125 308.429688 590.820312 307.859375 C 590.4375 307.285156 590.027344 306.734375 589.59375 306.203125 C 589.15625 305.671875 588.695312 305.160156 588.207031 304.675781 C 587.722656 304.1875 587.210938 303.726562 586.679688 303.289062 C 586.148438 302.855469 585.597656 302.445312 585.023438 302.0625 C 584.453125 301.679688 583.863281 301.328125 583.253906 301.003906 C 582.648438 300.675781 582.027344 300.382812 581.390625 300.121094 C 580.753906 299.855469 580.109375 299.625 579.449219 299.425781 C 578.792969 299.226562 578.125 299.058594 577.449219 298.925781 C 576.773438 298.789062 576.09375 298.691406 575.410156 298.621094 C 574.726562 298.554688 574.039062 298.519531 573.351562 298.519531 L 422.335938 298.519531 C 424.339844 296.519531 426.285156 294.460938 428.167969 292.34375 C 430.050781 290.226562 431.871094 288.054688 433.628906 285.832031 C 435.382812 283.605469 437.070312 281.332031 438.691406 279.007812 C 440.3125 276.683594 441.863281 274.3125 443.34375 271.898438 C 444.824219 269.480469 446.230469 267.023438 447.566406 264.523438 C 448.902344 262.023438 450.160156 259.488281 451.34375 256.914062 C 452.527344 254.339844 453.636719 251.730469 454.667969 249.089844 C 455.695312 246.453125 456.648438 243.785156 457.519531 241.085938 C 458.390625 238.390625 459.183594 235.671875 459.894531 232.929688 C 460.605469 230.1875 461.234375 227.425781 461.785156 224.644531 C 462.332031 221.863281 462.796875 219.070312 463.179688 216.261719 C 463.558594 213.453125 463.859375 210.636719 464.074219 207.8125 C 464.289062 204.988281 464.421875 202.15625 464.46875 199.324219 C 464.515625 196.492188 464.480469 193.660156 464.359375 190.828125 C 464.242188 187.996094 464.039062 185.171875 463.75 182.351562 C 463.460938 179.53125 463.09375 176.722656 462.640625 173.925781 C 462.183594 171.128906 461.648438 168.347656 461.03125 165.582031 C 460.414062 162.816406 459.714844 160.074219 458.933594 157.347656 C 458.152344 154.625 457.292969 151.925781 456.351562 149.253906 C 455.410156 146.582031 454.390625 143.9375 453.292969 141.324219 C 452.199219 138.710938 451.023438 136.132812 449.773438 133.589844 C 448.523438 131.046875 447.199219 128.542969 445.804688 126.078125 C 444.40625 123.613281 442.933594 121.191406 441.394531 118.816406 C 439.851562 116.4375 438.242188 114.105469 436.5625 111.824219 C 434.882812 109.542969 433.136719 107.3125 431.328125 105.132812 C 429.515625 102.953125 427.640625 100.828125 425.703125 98.761719 C 423.765625 96.695312 421.769531 94.683594 419.714844 92.734375 C 417.65625 90.785156 415.546875 88.898438 413.378906 87.074219 C 411.210938 85.25 408.988281 83.488281 406.71875 81.796875 C 404.445312 80.101562 402.125 78.476562 399.757812 76.921875 C 397.390625 75.367188 394.976562 73.882812 392.519531 72.46875 C 390.0625 71.054688 387.566406 69.714844 385.03125 68.449219 C 382.496094 67.183594 379.925781 65.996094 377.320312 64.882812 C 374.714844 63.769531 372.078125 62.734375 369.410156 61.777344 C 366.742188 60.820312 364.050781 59.945312 361.332031 59.148438 C 358.613281 58.347656 355.871094 57.632812 353.109375 56.996094 C 350.347656 56.363281 347.570312 55.808594 344.777344 55.339844 C 341.980469 54.867188 339.175781 54.480469 336.359375 54.175781 C 333.542969 53.871094 330.71875 53.652344 327.886719 53.511719 C 325.058594 53.375 322.226562 53.324219 319.390625 53.351562 C 316.558594 53.382812 313.726562 53.496094 310.902344 53.695312 C 308.074219 53.894531 305.257812 54.175781 302.445312 54.539062 C 299.636719 54.90625 296.839844 55.351562 294.054688 55.882812 C 291.273438 56.414062 288.507812 57.027344 285.757812 57.71875 C 283.011719 58.414062 280.289062 59.1875 277.585938 60.046875 C 274.882812 60.902344 272.210938 61.835938 269.566406 62.847656 C 266.917969 63.863281 264.304688 64.953125 261.722656 66.125 C 259.140625 67.292969 256.597656 68.535156 254.089844 69.855469 C 251.582031 71.175781 249.117188 72.566406 246.691406 74.03125 C 244.265625 75.496094 241.886719 77.035156 239.550781 78.640625 C 237.214844 80.246094 234.929688 81.921875 232.695312 83.664062 C 230.460938 85.402344 228.277344 87.210938 226.152344 89.082031 C 224.023438 90.953125 221.953125 92.882812 219.9375 94.878906 C 217.921875 96.871094 215.96875 98.921875 214.078125 101.03125 C 212.1875 103.140625 210.359375 105.304688 208.59375 107.523438 C 206.828125 109.738281 205.132812 112.007812 203.5 114.324219 C 201.871094 116.644531 200.3125 119.007812 198.820312 121.417969 C 197.332031 123.828125 195.914062 126.28125 194.570312 128.773438 C 193.226562 131.269531 191.953125 133.800781 190.761719 136.371094 C 189.566406 138.9375 188.449219 141.542969 187.40625 144.175781 C 186.367188 146.8125 185.402344 149.476562 184.519531 152.167969 C 183.636719 154.863281 182.835938 157.578125 182.113281 160.320312 C 181.390625 163.058594 180.75 165.816406 180.191406 168.597656 C 179.632812 171.375 179.15625 174.167969 178.765625 176.972656 C 176.6875 175.886719 174.570312 174.886719 172.414062 173.976562 C 170.257812 173.0625 168.066406 172.238281 165.84375 171.503906 C 163.617188 170.765625 161.367188 170.125 159.09375 169.570312 C 156.816406 169.019531 154.519531 168.558594 152.207031 168.195312 C 149.894531 167.828125 147.570312 167.554688 145.234375 167.378906 C 142.898438 167.203125 140.558594 167.121094 138.21875 167.132812 C 135.875 167.144531 133.535156 167.253906 131.203125 167.457031 C 128.871094 167.660156 126.546875 167.957031 124.238281 168.347656 C 121.929688 168.738281 119.640625 169.222656 117.371094 169.800781 C 115.097656 170.375 112.855469 171.042969 110.640625 171.804688 C 108.425781 172.5625 106.242188 173.410156 104.097656 174.347656 C 101.949219 175.285156 99.84375 176.308594 97.78125 177.414062 C 95.714844 178.523438 93.699219 179.710938 91.734375 180.984375 C 89.765625 182.253906 87.851562 183.605469 85.996094 185.03125 C 84.136719 186.457031 82.339844 187.957031 80.605469 189.527344 C 78.871094 191.101562 77.199219 192.742188 75.597656 194.449219 C 73.996094 196.160156 72.464844 197.929688 71.003906 199.761719 C 69.546875 201.59375 68.164062 203.484375 66.859375 205.429688 C 65.554688 207.371094 64.328125 209.367188 63.183594 211.410156 C 62.042969 213.457031 60.984375 215.542969 60.007812 217.671875 C 59.035156 219.804688 58.148438 221.96875 57.351562 224.171875 C 56.554688 226.375 55.847656 228.605469 55.230469 230.863281 C 54.613281 233.125 54.089844 235.40625 53.65625 237.707031 C 53.226562 240.011719 52.886719 242.328125 52.644531 244.65625 C 52.402344 246.984375 52.253906 249.320312 52.199219 251.664062 C 52.144531 254.003906 52.1875 256.34375 52.324219 258.683594 C 52.460938 261.023438 52.691406 263.351562 53.015625 265.671875 C 53.34375 267.988281 53.761719 270.292969 54.273438 272.578125 C 54.785156 274.863281 55.390625 277.125 56.085938 279.359375 C 56.785156 281.597656 57.570312 283.800781 58.445312 285.976562 C 59.320312 288.148438 60.28125 290.28125 61.332031 292.375 C 62.378906 294.46875 63.511719 296.519531 64.726562 298.519531 L 21.8125 298.519531 C 21.125 298.519531 20.4375 298.554688 19.753906 298.621094 C 19.066406 298.691406 18.386719 298.789062 17.710938 298.925781 C 17.039062 299.058594 16.371094 299.226562 15.710938 299.425781 C 15.054688 299.625 14.40625 299.855469 13.769531 300.121094 C 13.136719 300.382812 12.515625 300.675781 11.90625 301.003906 C 11.300781 301.328125 10.710938 301.679688 10.136719 302.0625 C 9.566406 302.445312 9.015625 302.855469 8.484375 303.289062 C 7.949219 303.726562 7.441406 304.1875 6.953125 304.675781 C 6.46875 305.160156 6.007812 305.671875 5.570312 306.203125 C 5.132812 306.734375 4.722656 307.285156 4.339844 307.859375 C 3.960938 308.429688 3.605469 309.019531 3.28125 309.628906 C 2.957031 310.234375 2.664062 310.855469 2.398438 311.492188 C 2.136719 312.128906 1.90625 312.773438 1.707031 313.433594 C 1.503906 314.089844 1.339844 314.757812 1.203125 315.433594 C 1.070312 316.109375 0.96875 316.789062 0.902344 317.472656 C 0.835938 318.15625 0.800781 318.84375 0.800781 319.53125 L 0.800781 711.335938 C 0.800781 712.023438 0.835938 712.710938 0.902344 713.394531 C 0.96875 714.078125 1.070312 714.757812 1.203125 715.433594 C 1.339844 716.109375 1.503906 716.777344 1.707031 717.433594 C 1.90625 718.09375 2.136719 718.738281 2.398438 719.375 C 2.664062 720.011719 2.957031 720.632812 3.28125 721.238281 C 3.605469 721.847656 3.960938 722.4375 4.339844 723.007812 C 4.722656 723.578125 5.132812 724.132812 5.570312 724.664062 C 6.007812 725.195312 6.46875 725.707031 6.953125 726.191406 C 7.441406 726.679688 7.949219 727.140625 8.484375 727.578125 C 9.015625 728.011719 9.566406 728.421875 10.140625 728.804688 C 10.710938 729.1875 11.300781 729.539062 11.90625 729.863281 C 12.515625 730.1875 13.136719 730.484375 13.769531 730.746094 C 14.40625 731.007812 15.054688 731.242188 15.710938 731.441406 C 16.371094 731.640625 17.039062 731.808594 17.710938 731.941406 C 18.386719 732.078125 19.066406 732.175781 19.753906 732.246094 C 20.4375 732.3125 21.125 732.347656 21.8125 732.347656 L 573.351562 732.347656 C 574.039062 732.347656 574.726562 732.3125 575.410156 732.246094 C 576.09375 732.175781 576.773438 732.078125 577.449219 731.941406 C 578.125 731.808594 578.792969 731.640625 579.449219 731.441406 C 580.109375 731.242188 580.753906 731.007812 581.390625 730.746094 C 582.027344 730.484375 582.648438 730.1875 583.253906 729.863281 C 583.863281 729.539062 584.453125 729.1875 585.023438 728.804688 C 585.597656 728.421875 586.148438 728.011719 586.679688 727.578125 C 587.210938 727.140625 587.722656 726.679688 588.207031 726.191406 C 588.695312 725.707031 589.15625 725.195312 589.59375 724.664062 C 590.027344 724.132812 590.4375 723.578125 590.820312 723.007812 C 591.203125 722.4375 591.554688 721.847656 591.878906 721.238281 C 592.207031 720.632812 592.5 720.011719 592.761719 719.375 C 593.027344 718.738281 593.257812 718.09375 593.457031 717.433594 C 593.65625 716.777344 593.824219 716.109375 593.957031 715.433594 C 594.09375 714.757812 594.191406 714.078125 594.261719 713.394531 C 594.328125 712.710938 594.363281 712.023438 594.363281 711.335938 L 594.363281 655.234375 L 777.683594 761.078125 C 779.28125 762 780.96875 762.699219 782.75 763.175781 C 784.53125 763.65625 786.34375 763.894531 788.1875 763.894531 C 790.03125 763.894531 791.84375 763.65625 793.625 763.175781 C 795.40625 762.699219 797.097656 762 798.695312 761.078125 C 800.292969 760.15625 801.746094 759.039062 803.050781 757.734375 C 804.355469 756.425781 805.46875 754.972656 806.390625 753.375 C 807.3125 751.773438 808.011719 750.082031 808.488281 748.296875 C 808.964844 746.511719 809.203125 744.699219 809.199219 742.851562 L 809.199219 287.964844 C 809.195312 286.117188 808.953125 284.304688 808.46875 282.523438 C 807.988281 280.742188 807.28125 279.054688 806.355469 277.460938 C 805.429688 275.867188 804.3125 274.417969 803.003906 273.117188 C 801.695312 271.816406 800.242188 270.707031 798.640625 269.789062 Z M 321.21875 95.34375 C 322.878906 95.347656 324.539062 95.394531 326.199219 95.480469 C 327.859375 95.566406 329.515625 95.691406 331.167969 95.859375 C 332.824219 96.027344 334.46875 96.234375 336.113281 96.480469 C 337.757812 96.730469 339.394531 97.015625 341.023438 97.34375 C 342.652344 97.675781 344.269531 98.042969 345.882812 98.449219 C 347.492188 98.855469 349.09375 99.304688 350.679688 99.789062 C 352.269531 100.277344 353.847656 100.800781 355.410156 101.363281 C 356.972656 101.929688 358.519531 102.53125 360.054688 103.167969 C 361.589844 103.808594 363.105469 104.484375 364.605469 105.199219 C 366.105469 105.914062 367.589844 106.664062 369.050781 107.449219 C 370.515625 108.238281 371.957031 109.058594 373.382812 109.917969 C 374.804688 110.773438 376.207031 111.667969 377.585938 112.59375 C 378.964844 113.519531 380.320312 114.480469 381.652344 115.472656 C 382.988281 116.464844 384.292969 117.488281 385.574219 118.546875 C 386.859375 119.601562 388.113281 120.691406 389.34375 121.808594 C 390.570312 122.929688 391.773438 124.074219 392.945312 125.253906 C 394.117188 126.429688 395.257812 127.636719 396.371094 128.871094 C 397.484375 130.105469 398.570312 131.363281 399.621094 132.652344 C 400.671875 133.9375 401.691406 135.25 402.675781 136.585938 C 403.664062 137.921875 404.617188 139.28125 405.539062 140.667969 C 406.460938 142.050781 407.34375 143.453125 408.195312 144.882812 C 409.046875 146.308594 409.863281 147.753906 410.644531 149.222656 C 411.425781 150.691406 412.167969 152.175781 412.875 153.679688 C 413.582031 155.183594 414.253906 156.703125 414.886719 158.238281 C 415.519531 159.773438 416.113281 161.324219 416.671875 162.890625 C 417.226562 164.457031 417.746094 166.035156 418.226562 167.625 C 418.703125 169.21875 419.144531 170.820312 419.546875 172.429688 C 419.945312 174.042969 420.308594 175.664062 420.628906 177.296875 C 420.949219 178.925781 421.230469 180.5625 421.472656 182.207031 C 421.710938 183.851562 421.914062 185.5 422.074219 187.15625 C 422.234375 188.808594 422.351562 190.464844 422.429688 192.125 C 422.507812 193.785156 422.546875 195.445312 422.542969 197.109375 C 422.542969 198.769531 422.496094 200.429688 422.414062 202.089844 C 422.328125 203.75 422.203125 205.40625 422.039062 207.058594 C 421.871094 208.710938 421.667969 210.359375 421.421875 212.003906 C 421.171875 213.648438 420.886719 215.28125 420.558594 216.914062 C 420.234375 218.542969 419.867188 220.160156 419.460938 221.773438 C 419.054688 223.382812 418.609375 224.984375 418.125 226.574219 C 417.640625 228.164062 417.117188 229.738281 416.554688 231.304688 C 415.992188 232.867188 415.390625 234.414062 414.753906 235.949219 C 414.113281 237.484375 413.4375 239 412.726562 240.503906 C 412.011719 242.003906 411.265625 243.488281 410.480469 244.949219 C 409.695312 246.414062 408.871094 247.859375 408.015625 249.285156 C 407.160156 250.707031 406.269531 252.109375 405.34375 253.488281 C 404.417969 254.871094 403.460938 256.226562 402.46875 257.558594 C 401.476562 258.894531 400.453125 260.203125 399.398438 261.484375 C 398.34375 262.769531 397.253906 264.023438 396.136719 265.253906 C 395.019531 266.484375 393.875 267.683594 392.695312 268.859375 C 391.519531 270.03125 390.316406 271.175781 389.082031 272.289062 C 387.851562 273.40625 386.589844 274.488281 385.304688 275.539062 C 384.019531 276.59375 382.710938 277.613281 381.375 278.601562 C 380.039062 279.589844 378.679688 280.546875 377.296875 281.464844 C 375.914062 282.386719 374.507812 283.273438 373.082031 284.128906 C 371.65625 284.980469 370.210938 285.796875 368.742188 286.578125 C 367.277344 287.359375 365.792969 288.105469 364.289062 288.816406 C 362.785156 289.523438 361.265625 290.195312 359.730469 290.828125 C 358.195312 291.464844 356.644531 292.058594 355.078125 292.617188 C 353.515625 293.175781 351.9375 293.695312 350.347656 294.175781 C 348.753906 294.65625 347.152344 295.097656 345.542969 295.5 C 343.929688 295.902344 342.308594 296.265625 340.679688 296.585938 C 339.046875 296.910156 337.410156 297.191406 335.765625 297.433594 C 334.125 297.675781 332.476562 297.878906 330.820312 298.039062 C 329.167969 298.203125 327.511719 298.324219 325.851562 298.402344 C 324.191406 298.484375 322.53125 298.523438 320.867188 298.519531 C 319.207031 298.519531 317.546875 298.476562 315.886719 298.394531 C 314.226562 298.3125 312.570312 298.1875 310.917969 298.023438 C 309.261719 297.859375 307.613281 297.65625 305.972656 297.410156 C 304.328125 297.164062 302.691406 296.878906 301.0625 296.554688 C 299.433594 296.226562 297.8125 295.863281 296.199219 295.457031 C 294.589844 295.054688 292.988281 294.609375 291.398438 294.125 C 289.808594 293.640625 288.230469 293.121094 286.667969 292.558594 C 285.101562 292 283.554688 291.398438 282.019531 290.761719 C 280.484375 290.125 278.964844 289.453125 277.464844 288.742188 C 275.964844 288.027344 274.480469 287.28125 273.015625 286.496094 C 271.550781 285.710938 270.105469 284.894531 268.679688 284.039062 C 267.253906 283.183594 265.851562 282.292969 264.472656 281.371094 C 263.089844 280.445312 261.730469 279.488281 260.398438 278.496094 C 259.0625 277.507812 257.753906 276.484375 256.472656 275.429688 C 255.1875 274.375 253.929688 273.289062 252.699219 272.171875 C 251.46875 271.058594 250.265625 269.910156 249.089844 268.734375 C 247.917969 267.558594 246.773438 266.355469 245.65625 265.125 C 244.542969 263.894531 243.457031 262.632812 242.402344 261.351562 C 241.347656 260.066406 240.328125 258.753906 239.339844 257.421875 C 238.347656 256.085938 237.394531 254.726562 236.46875 253.34375 C 235.546875 251.960938 234.660156 250.558594 233.804688 249.132812 C 232.953125 247.707031 232.132812 246.261719 231.351562 244.796875 C 230.566406 243.332031 229.820312 241.847656 229.109375 240.34375 C 228.402344 238.84375 227.726562 237.324219 227.09375 235.789062 C 226.457031 234.253906 225.859375 232.703125 225.300781 231.140625 C 224.738281 229.574219 224.21875 227.996094 223.738281 226.40625 C 223.253906 224.816406 222.8125 223.214844 222.410156 221.601562 C 222.003906 219.992188 221.640625 218.371094 221.316406 216.742188 C 220.992188 215.109375 220.710938 213.472656 220.464844 211.832031 C 220.222656 210.1875 220.019531 208.539062 219.855469 206.882812 C 219.695312 205.230469 219.570312 203.574219 219.488281 201.914062 C 219.410156 200.253906 219.367188 198.59375 219.367188 196.933594 C 219.371094 195.269531 219.414062 193.605469 219.496094 191.941406 C 219.582031 190.28125 219.707031 188.621094 219.871094 186.964844 C 220.039062 185.308594 220.246094 183.65625 220.492188 182.011719 C 220.738281 180.363281 221.023438 178.726562 221.351562 177.09375 C 221.679688 175.460938 222.046875 173.835938 222.453125 172.222656 C 222.859375 170.609375 223.304688 169.007812 223.792969 167.414062 C 224.277344 165.820312 224.800781 164.242188 225.363281 162.675781 C 225.925781 161.109375 226.527344 159.558594 227.167969 158.019531 C 227.808594 156.484375 228.484375 154.964844 229.199219 153.460938 C 229.910156 151.957031 230.660156 150.46875 231.449219 149.003906 C 232.234375 147.535156 233.058594 146.089844 233.914062 144.664062 C 234.773438 143.238281 235.664062 141.832031 236.589844 140.449219 C 237.519531 139.066406 238.476562 137.707031 239.472656 136.371094 C 240.464844 135.035156 241.492188 133.726562 242.546875 132.441406 C 243.605469 131.152344 244.695312 129.894531 245.8125 128.664062 C 246.933594 127.433594 248.082031 126.226562 249.261719 125.050781 C 250.441406 123.875 251.644531 122.730469 252.882812 121.613281 C 254.117188 120.5 255.378906 119.414062 256.664062 118.359375 C 257.953125 117.304688 259.265625 116.28125 260.605469 115.292969 C 261.945312 114.300781 263.304688 113.34375 264.691406 112.421875 C 266.074219 111.5 267.484375 110.609375 268.910156 109.757812 C 270.339844 108.902344 271.789062 108.085938 273.257812 107.300781 C 274.726562 106.519531 276.214844 105.773438 277.71875 105.0625 C 279.226562 104.351562 280.746094 103.679688 282.285156 103.042969 C 283.824219 102.410156 285.378906 101.8125 286.945312 101.253906 C 288.515625 100.695312 290.09375 100.171875 291.6875 99.691406 C 293.28125 99.210938 294.886719 98.769531 296.5 98.367188 C 298.117188 97.964844 299.742188 97.601562 301.375 97.277344 C 303.007812 96.953125 304.644531 96.671875 306.292969 96.429688 C 307.941406 96.1875 309.589844 95.984375 311.25 95.824219 C 312.90625 95.664062 314.566406 95.542969 316.226562 95.460938 C 317.890625 95.382812 319.554688 95.34375 321.21875 95.34375 Z M 219.523438 298.519531 L 213.011719 298.519531 C 213.851562 297.101562 214.691406 295.683594 215.480469 294.265625 Z M 94.195312 253.871094 C 94.195312 252.410156 94.265625 250.953125 94.410156 249.496094 C 94.554688 248.042969 94.765625 246.597656 95.050781 245.164062 C 95.335938 243.726562 95.691406 242.3125 96.117188 240.910156 C 96.542969 239.511719 97.035156 238.136719 97.59375 236.785156 C 98.152344 235.433594 98.777344 234.113281 99.464844 232.824219 C 100.15625 231.535156 100.90625 230.28125 101.71875 229.066406 C 102.53125 227.851562 103.402344 226.679688 104.328125 225.546875 C 105.257812 224.417969 106.238281 223.335938 107.273438 222.300781 C 108.304688 221.265625 109.386719 220.285156 110.519531 219.359375 C 111.648438 218.429688 112.820312 217.5625 114.039062 216.75 C 115.253906 215.9375 116.507812 215.1875 117.796875 214.496094 C 119.085938 213.808594 120.40625 213.183594 121.757812 212.621094 C 123.109375 212.0625 124.484375 211.570312 125.882812 211.148438 C 127.28125 210.722656 128.699219 210.367188 130.132812 210.082031 C 131.566406 209.796875 133.011719 209.582031 134.464844 209.4375 C 135.921875 209.296875 137.378906 209.222656 138.84375 209.222656 C 140.304688 209.222656 141.765625 209.296875 143.21875 209.4375 C 144.675781 209.582031 146.121094 209.796875 147.554688 210.082031 C 148.988281 210.367188 150.40625 210.722656 151.804688 211.148438 C 153.203125 211.570312 154.578125 212.0625 155.929688 212.621094 C 157.28125 213.183594 158.601562 213.808594 159.890625 214.496094 C 161.179688 215.1875 162.433594 215.9375 163.648438 216.75 C 164.863281 217.5625 166.039062 218.429688 167.167969 219.359375 C 168.296875 220.285156 169.378906 221.265625 170.414062 222.300781 C 171.449219 223.335938 172.429688 224.417969 173.355469 225.546875 C 174.285156 226.679688 175.15625 227.851562 175.96875 229.066406 C 176.777344 230.28125 177.53125 231.535156 178.21875 232.824219 C 178.910156 234.113281 179.53125 235.433594 180.09375 236.785156 C 180.652344 238.136719 181.144531 239.511719 181.570312 240.910156 C 181.992188 242.3125 182.347656 243.726562 182.632812 245.164062 C 182.917969 246.597656 183.132812 248.042969 183.277344 249.496094 C 183.417969 250.953125 183.492188 252.410156 183.492188 253.871094 C 183.492188 255.335938 183.417969 256.792969 183.277344 258.25 C 183.132812 259.703125 182.917969 261.148438 182.632812 262.582031 C 182.347656 264.015625 181.992188 265.433594 181.570312 266.832031 C 181.144531 268.234375 180.652344 269.609375 180.09375 270.957031 C 179.53125 272.308594 178.910156 273.628906 178.21875 274.917969 C 177.53125 276.210938 176.777344 277.460938 175.96875 278.679688 C 175.15625 279.894531 174.285156 281.066406 173.355469 282.199219 C 172.429688 283.328125 171.449219 284.410156 170.414062 285.445312 C 169.378906 286.476562 168.296875 287.457031 167.167969 288.386719 C 166.039062 289.3125 164.863281 290.183594 163.648438 290.996094 C 162.433594 291.808594 161.179688 292.558594 159.890625 293.25 C 158.601562 293.9375 157.28125 294.5625 155.929688 295.121094 C 154.578125 295.683594 153.203125 296.175781 151.804688 296.597656 C 150.40625 297.023438 148.988281 297.378906 147.554688 297.664062 C 146.121094 297.949219 144.675781 298.164062 143.21875 298.304688 C 141.765625 298.449219 140.304688 298.519531 138.84375 298.519531 C 137.382812 298.519531 135.921875 298.445312 134.46875 298.300781 C 133.015625 298.15625 131.570312 297.941406 130.136719 297.65625 C 128.703125 297.367188 127.285156 297.011719 125.886719 296.585938 C 124.488281 296.160156 123.113281 295.667969 121.765625 295.109375 C 120.414062 294.546875 119.09375 293.921875 117.804688 293.234375 C 116.515625 292.542969 115.265625 291.792969 114.050781 290.980469 C 112.835938 290.167969 111.664062 289.296875 110.53125 288.371094 C 109.402344 287.441406 108.320312 286.460938 107.289062 285.429688 C 106.253906 284.394531 105.273438 283.3125 104.34375 282.183594 C 103.417969 281.054688 102.546875 279.878906 101.734375 278.664062 C 100.921875 277.449219 100.171875 276.199219 99.480469 274.910156 C 98.792969 273.621094 98.167969 272.300781 97.605469 270.949219 C 97.046875 269.601562 96.554688 268.226562 96.128906 266.828125 C 95.703125 265.429688 95.347656 264.011719 95.0625 262.578125 C 94.773438 261.144531 94.558594 259.703125 94.414062 258.246094 C 94.269531 256.792969 94.195312 255.335938 94.195312 253.871094 Z M 552.339844 690.324219 L 42.824219 690.324219 L 42.824219 340.542969 L 552.339844 340.542969 Z M 767.175781 706.449219 L 594.363281 606.648438 L 594.363281 424.113281 L 767.175781 324.3125 Z M 767.175781 706.449219 " fill-opacity="1" fill-rule="nonzero"/><path fill="#f0c363" d="M 153.128906 515.566406 C 153.132812 517.933594 153.191406 520.300781 153.308594 522.667969 C 153.429688 525.03125 153.605469 527.394531 153.839844 529.75 C 154.070312 532.109375 154.363281 534.460938 154.714844 536.800781 C 155.0625 539.144531 155.46875 541.476562 155.933594 543.800781 C 156.398438 546.125 156.917969 548.433594 157.496094 550.730469 C 158.074219 553.03125 158.707031 555.3125 159.394531 557.578125 C 160.085938 559.84375 160.828125 562.09375 161.628906 564.320312 C 162.429688 566.550781 163.28125 568.761719 164.191406 570.949219 C 165.101562 573.136719 166.0625 575.300781 167.074219 577.441406 C 168.089844 579.582031 169.15625 581.695312 170.277344 583.785156 C 171.394531 585.871094 172.5625 587.933594 173.78125 589.960938 C 175.003906 591.992188 176.269531 593.992188 177.589844 595.960938 C 178.90625 597.929688 180.273438 599.867188 181.683594 601.765625 C 183.097656 603.667969 184.554688 605.535156 186.058594 607.363281 C 187.566406 609.195312 189.113281 610.984375 190.707031 612.738281 C 192.296875 614.492188 193.933594 616.207031 195.609375 617.878906 C 197.285156 619.554688 199.003906 621.183594 200.757812 622.773438 C 202.515625 624.363281 204.308594 625.910156 206.144531 627.410156 C 207.976562 628.910156 209.84375 630.367188 211.746094 631.777344 C 213.652344 633.183594 215.589844 634.546875 217.558594 635.859375 C 219.53125 637.175781 221.53125 638.441406 223.566406 639.65625 C 225.597656 640.871094 227.660156 642.039062 229.75 643.152344 C 231.839844 644.265625 233.957031 645.328125 236.101562 646.339844 C 238.242188 647.351562 240.410156 648.308594 242.597656 649.210938 C 244.789062 650.117188 246.996094 650.96875 249.230469 651.761719 C 251.460938 652.558594 253.710938 653.300781 255.976562 653.984375 C 258.246094 654.667969 260.527344 655.300781 262.828125 655.871094 C 265.125 656.445312 267.4375 656.960938 269.761719 657.421875 C 272.082031 657.882812 274.417969 658.285156 276.761719 658.628906 C 279.105469 658.972656 281.457031 659.261719 283.8125 659.492188 C 286.171875 659.71875 288.53125 659.890625 290.898438 660.007812 C 293.265625 660.121094 295.632812 660.175781 298 660.171875 C 300.371094 660.171875 302.738281 660.109375 305.105469 659.992188 C 307.46875 659.871094 309.832031 659.695312 312.1875 659.460938 C 314.546875 659.226562 316.894531 658.933594 319.238281 658.582031 C 321.582031 658.230469 323.914062 657.824219 326.238281 657.359375 C 328.558594 656.894531 330.871094 656.375 333.167969 655.796875 C 335.464844 655.21875 337.746094 654.582031 340.011719 653.894531 C 342.277344 653.203125 344.527344 652.457031 346.753906 651.65625 C 348.984375 650.855469 351.195312 650 353.382812 649.089844 C 355.570312 648.183594 357.734375 647.21875 359.871094 646.203125 C 362.011719 645.191406 364.128906 644.121094 366.214844 643.003906 C 368.300781 641.882812 370.363281 640.714844 372.390625 639.492188 C 374.421875 638.273438 376.421875 637.003906 378.390625 635.6875 C 380.359375 634.367188 382.292969 633 384.191406 631.585938 C 386.09375 630.175781 387.960938 628.714844 389.789062 627.210938 C 391.617188 625.703125 393.410156 624.15625 395.164062 622.5625 C 396.914062 620.96875 398.628906 619.335938 400.300781 617.65625 C 401.972656 615.980469 403.605469 614.261719 405.195312 612.503906 C 406.78125 610.75 408.328125 608.953125 409.828125 607.121094 C 411.328125 605.285156 412.78125 603.417969 414.191406 601.511719 C 415.601562 599.609375 416.960938 597.671875 418.273438 595.699219 C 419.585938 593.726562 420.851562 591.726562 422.066406 589.691406 C 423.28125 587.660156 424.445312 585.597656 425.5625 583.507812 C 426.675781 581.414062 427.738281 579.296875 428.746094 577.15625 C 429.757812 575.011719 430.714844 572.847656 431.617188 570.65625 C 432.519531 568.46875 433.371094 566.257812 434.164062 564.023438 C 434.960938 561.792969 435.699219 559.542969 436.382812 557.277344 C 437.070312 555.007812 437.695312 552.726562 438.269531 550.425781 C 438.839844 548.128906 439.355469 545.816406 439.816406 543.492188 C 440.273438 541.167969 440.675781 538.835938 441.019531 536.492188 C 441.363281 534.148438 441.652344 531.796875 441.878906 529.4375 C 442.109375 527.082031 442.28125 524.71875 442.394531 522.351562 C 442.503906 519.984375 442.558594 517.617188 442.558594 515.25 C 442.554688 512.878906 442.492188 510.511719 442.371094 508.148438 C 442.253906 505.78125 442.074219 503.417969 441.839844 501.0625 C 441.605469 498.707031 441.308594 496.355469 440.960938 494.011719 C 440.609375 491.671875 440.199219 489.335938 439.734375 487.015625 C 439.269531 484.691406 438.746094 482.382812 438.167969 480.085938 C 437.589844 477.789062 436.953125 475.507812 436.261719 473.242188 C 435.570312 470.976562 434.824219 468.726562 434.023438 466.5 C 433.222656 464.269531 432.367188 462.0625 431.457031 459.875 C 430.546875 457.6875 429.582031 455.523438 428.566406 453.382812 C 427.550781 451.242188 426.484375 449.128906 425.363281 447.042969 C 424.242188 444.953125 423.070312 442.894531 421.851562 440.867188 C 420.628906 438.835938 419.359375 436.835938 418.039062 434.871094 C 416.722656 432.902344 415.355469 430.96875 413.941406 429.066406 C 412.527344 427.167969 411.066406 425.304688 409.5625 423.472656 C 408.054688 421.644531 406.503906 419.855469 404.910156 418.101562 C 403.316406 416.347656 401.683594 414.636719 400.003906 412.964844 C 398.328125 411.292969 396.609375 409.664062 394.851562 408.074219 C 393.09375 406.484375 391.296875 404.941406 389.464844 403.441406 C 387.628906 401.941406 385.761719 400.488281 383.855469 399.082031 C 381.949219 397.671875 380.011719 396.3125 378.039062 395 C 376.066406 393.6875 374.066406 392.421875 372.03125 391.210938 C 369.996094 389.996094 367.933594 388.832031 365.84375 387.71875 C 363.753906 386.605469 361.636719 385.542969 359.492188 384.535156 C 357.347656 383.523438 355.183594 382.570312 352.992188 381.667969 C 350.800781 380.765625 348.589844 379.914062 346.359375 379.121094 C 344.128906 378.328125 341.878906 377.589844 339.609375 376.902344 C 337.34375 376.21875 335.058594 375.59375 332.757812 375.019531 C 330.460938 374.449219 328.148438 373.933594 325.824219 373.476562 C 323.5 373.019531 321.167969 372.617188 318.824219 372.273438 C 316.480469 371.929688 314.128906 371.644531 311.769531 371.417969 C 309.414062 371.191406 307.050781 371.019531 304.683594 370.90625 C 302.316406 370.796875 299.949219 370.742188 297.582031 370.746094 C 295.214844 370.753906 292.851562 370.816406 290.488281 370.941406 C 288.125 371.0625 285.765625 371.242188 283.414062 371.480469 C 281.058594 371.71875 278.710938 372.015625 276.371094 372.371094 C 274.03125 372.722656 271.703125 373.132812 269.382812 373.601562 C 267.066406 374.066406 264.757812 374.589844 262.464844 375.171875 C 260.171875 375.753906 257.894531 376.386719 255.628906 377.082031 C 253.367188 377.773438 251.125 378.519531 248.898438 379.320312 C 246.671875 380.125 244.464844 380.980469 242.28125 381.890625 C 240.097656 382.800781 237.9375 383.761719 235.800781 384.777344 C 233.664062 385.792969 231.554688 386.863281 229.46875 387.980469 C 227.386719 389.101562 225.328125 390.269531 223.300781 391.488281 C 221.273438 392.710938 219.277344 393.976562 217.3125 395.296875 C 215.347656 396.613281 213.417969 397.980469 211.519531 399.390625 C 209.621094 400.804688 207.757812 402.261719 205.929688 403.765625 C 204.105469 405.269531 202.316406 406.816406 200.566406 408.40625 C 198.8125 410 197.101562 411.632812 195.433594 413.308594 C 193.761719 414.984375 192.132812 416.699219 190.546875 418.453125 C 188.957031 420.207031 187.414062 422 185.917969 423.832031 C 184.417969 425.660156 182.964844 427.527344 181.558594 429.429688 C 180.148438 431.332031 178.789062 433.265625 177.476562 435.234375 C 176.164062 437.203125 174.898438 439.203125 173.683594 441.234375 C 172.46875 443.261719 171.304688 445.320312 170.191406 447.410156 C 169.078125 449.496094 168.015625 451.609375 167.003906 453.75 C 165.996094 455.890625 165.039062 458.050781 164.132812 460.238281 C 163.226562 462.425781 162.378906 464.632812 161.582031 466.859375 C 160.785156 469.085938 160.042969 471.332031 159.359375 473.597656 C 158.671875 475.863281 158.042969 478.140625 157.46875 480.4375 C 156.890625 482.730469 156.375 485.039062 155.914062 487.359375 C 155.453125 489.679688 155.046875 492.011719 154.699219 494.351562 C 154.351562 496.691406 154.0625 499.039062 153.832031 501.394531 C 153.597656 503.75 153.421875 506.109375 153.308594 508.472656 C 153.191406 510.835938 153.132812 513.199219 153.128906 515.566406 Z M 400.535156 515.566406 C 400.535156 517.242188 400.492188 518.921875 400.40625 520.597656 C 400.324219 522.277344 400.199219 523.949219 400.03125 525.621094 C 399.863281 527.292969 399.65625 528.960938 399.410156 530.621094 C 399.160156 532.28125 398.875 533.933594 398.542969 535.582031 C 398.214844 537.230469 397.847656 538.867188 397.4375 540.496094 C 397.027344 542.125 396.578125 543.742188 396.089844 545.347656 C 395.601562 546.953125 395.074219 548.546875 394.503906 550.128906 C 393.9375 551.710938 393.332031 553.277344 392.691406 554.828125 C 392.046875 556.378906 391.363281 557.910156 390.644531 559.429688 C 389.925781 560.949219 389.171875 562.445312 388.378906 563.925781 C 387.585938 565.40625 386.757812 566.867188 385.894531 568.308594 C 385.027344 569.746094 384.128906 571.164062 383.195312 572.5625 C 382.261719 573.957031 381.292969 575.328125 380.292969 576.675781 C 379.292969 578.027344 378.257812 579.347656 377.191406 580.644531 C 376.125 581.945312 375.03125 583.214844 373.902344 584.457031 C 372.773438 585.703125 371.613281 586.917969 370.425781 588.105469 C 369.238281 589.292969 368.023438 590.449219 366.777344 591.574219 C 365.53125 592.703125 364.261719 593.800781 362.960938 594.863281 C 361.664062 595.929688 360.339844 596.960938 358.992188 597.960938 C 357.640625 598.960938 356.269531 599.925781 354.871094 600.859375 C 353.476562 601.792969 352.058594 602.691406 350.617188 603.554688 C 349.175781 604.417969 347.714844 605.242188 346.234375 606.035156 C 344.753906 606.828125 343.253906 607.582031 341.734375 608.296875 C 340.214844 609.015625 338.679688 609.695312 337.128906 610.339844 C 335.578125 610.980469 334.011719 611.585938 332.429688 612.152344 C 330.847656 612.714844 329.253906 613.242188 327.648438 613.730469 C 326.042969 614.21875 324.421875 614.664062 322.792969 615.074219 C 321.164062 615.480469 319.527344 615.847656 317.878906 616.175781 C 316.234375 616.503906 314.578125 616.792969 312.917969 617.039062 C 311.257812 617.285156 309.589844 617.492188 307.917969 617.65625 C 306.246094 617.820312 304.574219 617.945312 302.894531 618.027344 C 301.21875 618.109375 299.539062 618.148438 297.859375 618.152344 C 296.183594 618.152344 294.503906 618.109375 292.828125 618.027344 C 291.148438 617.945312 289.472656 617.824219 287.804688 617.660156 C 286.132812 617.496094 284.464844 617.289062 282.804688 617.042969 C 281.144531 616.796875 279.488281 616.511719 277.84375 616.183594 C 276.195312 615.855469 274.554688 615.488281 272.925781 615.082031 C 271.296875 614.675781 269.679688 614.226562 268.074219 613.742188 C 266.464844 613.253906 264.871094 612.726562 263.289062 612.164062 C 261.707031 611.597656 260.140625 610.992188 258.589844 610.351562 C 257.039062 609.710938 255.503906 609.03125 253.984375 608.3125 C 252.464844 607.597656 250.964844 606.84375 249.484375 606.050781 C 248.003906 605.261719 246.542969 604.433594 245.101562 603.570312 C 243.660156 602.707031 242.242188 601.8125 240.84375 600.878906 C 239.449219 599.945312 238.074219 598.980469 236.726562 597.980469 C 235.375 596.980469 234.050781 595.949219 232.753906 594.886719 C 231.453125 593.820312 230.179688 592.726562 228.9375 591.597656 C 227.691406 590.472656 226.472656 589.316406 225.285156 588.128906 C 224.097656 586.941406 222.9375 585.726562 221.808594 584.484375 C 220.679688 583.242188 219.582031 581.96875 218.515625 580.671875 C 217.449219 579.375 216.417969 578.054688 215.414062 576.703125 C 214.414062 575.355469 213.445312 573.984375 212.511719 572.589844 C 211.578125 571.195312 210.675781 569.777344 209.8125 568.335938 C 208.949219 566.898438 208.121094 565.4375 207.328125 563.957031 C 206.53125 562.476562 205.777344 560.976562 205.058594 559.460938 C 204.335938 557.945312 203.65625 556.410156 203.011719 554.859375 C 202.367188 553.308594 201.761719 551.742188 201.195312 550.160156 C 200.625 548.582031 200.097656 546.988281 199.609375 545.382812 C 199.121094 543.773438 198.667969 542.15625 198.257812 540.527344 C 197.851562 538.898438 197.480469 537.261719 197.148438 535.617188 C 196.820312 533.96875 196.53125 532.316406 196.28125 530.65625 C 196.035156 528.992188 195.828125 527.328125 195.660156 525.65625 C 195.492188 523.984375 195.367188 522.3125 195.28125 520.632812 C 195.199219 518.957031 195.15625 517.277344 195.152344 515.597656 C 195.152344 513.921875 195.1875 512.242188 195.269531 510.5625 C 195.347656 508.886719 195.46875 507.210938 195.632812 505.539062 C 195.796875 503.871094 196 502.203125 196.242188 500.542969 C 196.484375 498.878906 196.769531 497.226562 197.09375 495.578125 C 197.421875 493.929688 197.785156 492.292969 198.191406 490.660156 C 198.597656 489.03125 199.042969 487.414062 199.527344 485.804688 C 200.011719 484.199219 200.535156 482.601562 201.097656 481.019531 C 201.664062 479.4375 202.265625 477.871094 202.90625 476.320312 C 203.542969 474.765625 204.222656 473.230469 204.9375 471.710938 C 205.652344 470.191406 206.40625 468.691406 207.195312 467.207031 C 207.984375 465.726562 208.808594 464.265625 209.667969 462.820312 C 210.53125 461.378906 211.425781 459.960938 212.355469 458.5625 C 213.285156 457.164062 214.25 455.789062 215.25 454.4375 C 216.246094 453.089844 217.277344 451.761719 218.339844 450.460938 C 219.402344 449.164062 220.496094 447.890625 221.621094 446.644531 C 222.746094 445.394531 223.902344 444.179688 225.089844 442.988281 C 226.273438 441.796875 227.488281 440.636719 228.730469 439.507812 C 229.972656 438.378906 231.238281 437.277344 232.535156 436.210938 C 233.832031 435.144531 235.152344 434.105469 236.5 433.105469 C 237.847656 432.101562 239.21875 431.132812 240.613281 430.195312 C 242.007812 429.257812 243.421875 428.359375 244.859375 427.492188 C 246.300781 426.625 247.757812 425.792969 249.238281 425 C 250.71875 424.203125 252.214844 423.445312 253.730469 422.726562 C 255.25 422.003906 256.78125 421.320312 258.332031 420.675781 C 259.882812 420.027344 261.445312 419.421875 263.027344 418.851562 C 264.605469 418.28125 266.199219 417.75 267.804688 417.261719 C 269.410156 416.769531 271.027344 416.316406 272.65625 415.90625 C 274.285156 415.492188 275.921875 415.121094 277.566406 414.789062 C 279.214844 414.457031 280.867188 414.167969 282.527344 413.917969 C 284.1875 413.667969 285.855469 413.457031 287.523438 413.289062 C 289.195312 413.117188 290.871094 412.992188 292.546875 412.90625 C 294.222656 412.816406 295.902344 412.773438 297.582031 412.769531 C 299.261719 412.769531 300.941406 412.8125 302.621094 412.898438 C 304.300781 412.980469 305.976562 413.105469 307.648438 413.273438 C 309.324219 413.441406 310.992188 413.648438 312.652344 413.894531 C 314.316406 414.144531 315.972656 414.433594 317.621094 414.761719 C 319.269531 415.089844 320.910156 415.460938 322.539062 415.871094 C 324.171875 416.28125 325.789062 416.730469 327.398438 417.21875 C 329.007812 417.707031 330.601562 418.238281 332.183594 418.804688 C 333.765625 419.371094 335.335938 419.980469 336.886719 420.625 C 338.441406 421.269531 339.976562 421.949219 341.496094 422.671875 C 343.015625 423.390625 344.515625 424.148438 345.996094 424.941406 C 347.480469 425.734375 348.941406 426.5625 350.382812 427.429688 C 351.824219 428.292969 353.242188 429.195312 354.640625 430.128906 C 356.039062 431.0625 357.414062 432.03125 358.761719 433.035156 C 360.113281 434.039062 361.4375 435.070312 362.734375 436.140625 C 364.035156 437.207031 365.304688 438.304688 366.550781 439.433594 C 367.796875 440.566406 369.011719 441.722656 370.203125 442.914062 C 371.390625 444.101562 372.546875 445.320312 373.675781 446.566406 C 374.804688 447.8125 375.902344 449.085938 376.96875 450.386719 C 378.035156 451.6875 379.066406 453.011719 380.070312 454.363281 C 381.070312 455.714844 382.035156 457.089844 382.96875 458.488281 C 383.902344 459.886719 384.800781 461.304688 385.667969 462.746094 C 386.53125 464.191406 387.359375 465.652344 388.148438 467.136719 C 388.941406 468.617188 389.695312 470.121094 390.414062 471.640625 C 391.132812 473.160156 391.816406 474.695312 392.457031 476.25 C 393.101562 477.804688 393.707031 479.371094 394.269531 480.957031 C 394.835938 482.539062 395.363281 484.132812 395.851562 485.742188 C 396.339844 487.351562 396.789062 488.972656 397.195312 490.601562 C 397.605469 492.234375 397.972656 493.875 398.300781 495.523438 C 398.628906 497.171875 398.914062 498.828125 399.160156 500.492188 C 399.40625 502.152344 399.613281 503.824219 399.777344 505.496094 C 399.941406 507.167969 400.066406 508.84375 400.148438 510.523438 C 400.230469 512.203125 400.273438 513.882812 400.273438 515.566406 Z M 400.535156 515.566406 " fill-opacity="1" fill-rule="nonzero"/><path fill="#f0c363" d="M 246.105469 446.28125 C 244.507812 447.203125 243.058594 448.3125 241.757812 449.617188 C 240.453125 450.917969 239.339844 452.367188 238.417969 453.960938 C 237.496094 455.558594 236.796875 457.246094 236.320312 459.023438 C 235.839844 460.800781 235.601562 462.613281 235.597656 464.457031 L 235.597656 566.359375 C 235.597656 568.207031 235.832031 570.019531 236.308594 571.804688 C 236.785156 573.589844 237.484375 575.28125 238.40625 576.882812 C 239.328125 578.480469 240.441406 579.933594 241.746094 581.242188 C 243.050781 582.546875 244.503906 583.664062 246.105469 584.585938 C 247.703125 585.507812 249.390625 586.207031 251.171875 586.683594 C 252.953125 587.164062 254.765625 587.402344 256.609375 587.402344 C 258.453125 587.402344 260.265625 587.164062 262.046875 586.683594 C 263.828125 586.207031 265.519531 585.507812 267.117188 584.585938 L 355.414062 533.632812 C 357.011719 532.710938 358.464844 531.597656 359.769531 530.296875 C 361.074219 528.992188 362.1875 527.539062 363.109375 525.941406 C 364.03125 524.34375 364.734375 522.65625 365.210938 520.875 C 365.6875 519.089844 365.925781 517.277344 365.925781 515.433594 C 365.925781 513.589844 365.6875 511.773438 365.210938 509.992188 C 364.734375 508.210938 364.03125 506.519531 363.109375 504.925781 C 362.1875 503.328125 361.074219 501.875 359.769531 500.570312 C 358.464844 499.265625 357.011719 498.15625 355.414062 497.234375 L 267.117188 446.28125 C 265.519531 445.359375 263.828125 444.660156 262.046875 444.183594 C 260.265625 443.703125 258.453125 443.464844 256.609375 443.464844 C 254.765625 443.464844 252.953125 443.703125 251.171875 444.183594 C 249.390625 444.660156 247.703125 445.359375 246.105469 446.28125 Z M 277.621094 500.855469 L 302.886719 515.566406 L 277.621094 530.011719 Z M 277.621094 500.855469 " fill-opacity="1" fill-rule="nonzero"/></svg>