<svg xmlns="http://www.w3.org/2000/svg" xmlns:xlink="http://www.w3.org/1999/xlink" width="1080" zoomAndPan="magnify" viewBox="0 0 810 809.999993" height="1080" preserveAspectRatio="xMidYMid meet" version="1.0"><path fill="#f0c363" d="M 281.207031 297.226562 L 262.085938 297.226562 L 262.085938 278.105469 C 262.082031 277.125 262.035156 276.140625 261.9375 275.164062 C 261.839844 274.183594 261.695312 273.214844 261.503906 272.25 C 261.308594 271.285156 261.070312 270.332031 260.785156 269.390625 C 260.5 268.449219 260.167969 267.523438 259.789062 266.617188 C 259.414062 265.707031 258.992188 264.820312 258.53125 263.953125 C 258.066406 263.085938 257.5625 262.242188 257.015625 261.425781 C 256.46875 260.609375 255.882812 259.820312 255.257812 259.058594 C 254.632812 258.296875 253.976562 257.570312 253.28125 256.875 C 252.585938 256.179688 251.855469 255.519531 251.097656 254.894531 C 250.335938 254.269531 249.546875 253.6875 248.730469 253.140625 C 247.914062 252.59375 247.070312 252.085938 246.203125 251.625 C 245.335938 251.160156 244.449219 250.738281 243.539062 250.363281 C 242.632812 249.984375 241.707031 249.652344 240.765625 249.367188 C 239.824219 249.082031 238.871094 248.839844 237.90625 248.648438 C 236.941406 248.457031 235.972656 248.308594 234.992188 248.214844 C 234.015625 248.117188 233.035156 248.066406 232.050781 248.066406 L 199.273438 248.066406 C 198.289062 248.066406 197.308594 248.117188 196.332031 248.214844 C 195.351562 248.308594 194.382812 248.457031 193.417969 248.648438 C 192.453125 248.839844 191.5 249.082031 190.558594 249.367188 C 189.617188 249.652344 188.691406 249.984375 187.785156 250.363281 C 186.875 250.738281 185.988281 251.160156 185.121094 251.621094 C 184.253906 252.085938 183.410156 252.59375 182.59375 253.140625 C 181.777344 253.6875 180.988281 254.269531 180.226562 254.894531 C 179.46875 255.519531 178.738281 256.179688 178.042969 256.875 C 177.347656 257.570312 176.691406 258.296875 176.066406 259.058594 C 175.441406 259.820312 174.855469 260.609375 174.308594 261.425781 C 173.761719 262.242188 173.257812 263.085938 172.792969 263.953125 C 172.332031 264.820312 171.910156 265.707031 171.535156 266.617188 C 171.15625 267.523438 170.824219 268.449219 170.539062 269.390625 C 170.253906 270.332031 170.015625 271.285156 169.820312 272.25 C 169.628906 273.214844 169.484375 274.183594 169.386719 275.164062 C 169.289062 276.140625 169.242188 277.125 169.238281 278.105469 L 169.238281 297.226562 L 150.117188 297.226562 C 149.136719 297.230469 148.152344 297.277344 147.175781 297.375 C 146.195312 297.472656 145.226562 297.617188 144.261719 297.8125 C 143.296875 298.003906 142.34375 298.242188 141.402344 298.527344 C 140.460938 298.816406 139.539062 299.148438 138.628906 299.523438 C 137.722656 299.898438 136.832031 300.320312 135.964844 300.785156 C 135.101562 301.25 134.257812 301.753906 133.441406 302.300781 C 132.621094 302.847656 131.832031 303.433594 131.074219 304.054688 C 130.3125 304.679688 129.585938 305.339844 128.890625 306.035156 C 128.195312 306.730469 127.535156 307.457031 126.910156 308.21875 C 126.289062 308.976562 125.703125 309.765625 125.15625 310.585938 C 124.609375 311.402344 124.105469 312.246094 123.640625 313.113281 C 123.175781 313.976562 122.753906 314.867188 122.378906 315.773438 C 122.003906 316.683594 121.671875 317.605469 121.382812 318.546875 C 121.097656 319.488281 120.859375 320.441406 120.667969 321.40625 C 120.472656 322.371094 120.328125 323.339844 120.230469 324.320312 C 120.132812 325.296875 120.085938 326.28125 120.082031 327.261719 L 120.082031 360.039062 C 120.085938 361.023438 120.132812 362.003906 120.230469 362.980469 C 120.328125 363.960938 120.472656 364.929688 120.667969 365.894531 C 120.859375 366.859375 121.097656 367.8125 121.382812 368.753906 C 121.671875 369.695312 122.003906 370.617188 122.378906 371.527344 C 122.753906 372.433594 123.175781 373.324219 123.640625 374.191406 C 124.105469 375.058594 124.609375 375.898438 125.15625 376.714844 C 125.703125 377.535156 126.289062 378.324219 126.910156 379.082031 C 127.535156 379.84375 128.195312 380.570312 128.890625 381.265625 C 129.585938 381.960938 130.3125 382.621094 131.074219 383.246094 C 131.832031 383.867188 132.621094 384.453125 133.441406 385 C 134.257812 385.546875 135.101562 386.050781 135.964844 386.515625 C 136.832031 386.980469 137.722656 387.402344 138.628906 387.777344 C 139.539062 388.15625 140.460938 388.484375 141.402344 388.773438 C 142.34375 389.058594 143.296875 389.296875 144.261719 389.492188 C 145.226562 389.683594 146.195312 389.828125 147.175781 389.925781 C 148.152344 390.023438 149.136719 390.070312 150.117188 390.074219 L 169.238281 390.074219 L 169.238281 409.195312 C 169.242188 410.175781 169.289062 411.160156 169.386719 412.136719 C 169.484375 413.117188 169.628906 414.085938 169.824219 415.050781 C 170.015625 416.015625 170.253906 416.96875 170.539062 417.910156 C 170.828125 418.851562 171.15625 419.773438 171.535156 420.683594 C 171.910156 421.589844 172.332031 422.480469 172.796875 423.347656 C 173.261719 424.210938 173.765625 425.054688 174.3125 425.871094 C 174.859375 426.691406 175.445312 427.480469 176.066406 428.238281 C 176.691406 429 177.351562 429.726562 178.046875 430.421875 C 178.742188 431.117188 179.46875 431.777344 180.230469 432.402344 C 180.988281 433.023438 181.777344 433.609375 182.597656 434.15625 C 183.414062 434.703125 184.257812 435.207031 185.121094 435.671875 C 185.988281 436.136719 186.878906 436.558594 187.785156 436.933594 C 188.695312 437.308594 189.617188 437.640625 190.558594 437.929688 C 191.5 438.214844 192.453125 438.453125 193.417969 438.644531 C 194.382812 438.839844 195.351562 438.984375 196.332031 439.082031 C 197.308594 439.179688 198.292969 439.226562 199.273438 439.230469 L 232.050781 439.230469 C 233.03125 439.226562 234.015625 439.179688 234.992188 439.082031 C 235.972656 438.984375 236.941406 438.839844 237.90625 438.644531 C 238.871094 438.453125 239.824219 438.214844 240.765625 437.929688 C 241.707031 437.640625 242.628906 437.308594 243.539062 436.933594 C 244.445312 436.558594 245.335938 436.136719 246.203125 435.671875 C 247.070312 435.207031 247.910156 434.703125 248.726562 434.15625 C 249.546875 433.609375 250.335938 433.023438 251.09375 432.402344 C 251.855469 431.777344 252.582031 431.117188 253.277344 430.421875 C 253.972656 429.726562 254.632812 429 255.257812 428.238281 C 255.878906 427.480469 256.464844 426.691406 257.011719 425.871094 C 257.558594 425.054688 258.0625 424.210938 258.527344 423.34375 C 258.992188 422.476562 259.414062 421.589844 259.789062 420.683594 C 260.167969 419.773438 260.496094 418.847656 260.785156 417.910156 C 261.070312 416.96875 261.308594 416.015625 261.503906 415.050781 C 261.695312 414.085938 261.839844 413.117188 261.9375 412.136719 C 262.035156 411.160156 262.082031 410.175781 262.085938 409.195312 L 262.085938 390.074219 L 281.207031 390.074219 C 282.191406 390.070312 283.171875 390.023438 284.148438 389.925781 C 285.128906 389.828125 286.097656 389.683594 287.0625 389.492188 C 288.027344 389.296875 288.980469 389.058594 289.921875 388.773438 C 290.863281 388.484375 291.785156 388.15625 292.695312 387.777344 C 293.601562 387.402344 294.492188 386.980469 295.359375 386.515625 C 296.226562 386.050781 297.066406 385.546875 297.886719 385 C 298.703125 384.453125 299.492188 383.867188 300.25 383.246094 C 301.011719 382.621094 301.738281 381.960938 302.433594 381.265625 C 303.128906 380.570312 303.789062 379.84375 304.414062 379.082031 C 305.039062 378.324219 305.621094 377.535156 306.167969 376.714844 C 306.714844 375.898438 307.222656 375.058594 307.683594 374.191406 C 308.148438 373.324219 308.570312 372.433594 308.945312 371.527344 C 309.324219 370.617188 309.65625 369.695312 309.941406 368.753906 C 310.226562 367.8125 310.464844 366.859375 310.660156 365.894531 C 310.851562 364.929688 310.996094 363.960938 311.09375 362.980469 C 311.191406 362.003906 311.242188 361.023438 311.242188 360.039062 L 311.242188 327.261719 C 311.242188 326.28125 311.191406 325.296875 311.09375 324.320312 C 310.996094 323.339844 310.851562 322.371094 310.660156 321.40625 C 310.464844 320.441406 310.226562 319.488281 309.941406 318.546875 C 309.65625 317.605469 309.324219 316.683594 308.945312 315.773438 C 308.570312 314.867188 308.148438 313.980469 307.683594 313.113281 C 307.222656 312.246094 306.714844 311.402344 306.167969 310.585938 C 305.621094 309.765625 305.039062 308.976562 304.414062 308.21875 C 303.789062 307.457031 303.128906 306.730469 302.433594 306.035156 C 301.738281 305.339844 301.011719 304.679688 300.25 304.054688 C 299.492188 303.433594 298.703125 302.847656 297.886719 302.300781 C 297.066406 301.753906 296.226562 301.25 295.359375 300.785156 C 294.492188 300.320312 293.605469 299.898438 292.695312 299.523438 C 291.785156 299.148438 290.863281 298.816406 289.921875 298.527344 C 288.980469 298.242188 288.027344 298.003906 287.0625 297.8125 C 286.097656 297.617188 285.128906 297.472656 284.148438 297.375 C 283.171875 297.277344 282.191406 297.230469 281.207031 297.226562 Z M 283.933594 360.039062 C 283.933594 360.398438 283.863281 360.746094 283.726562 361.082031 C 283.585938 361.417969 283.390625 361.710938 283.136719 361.964844 C 282.878906 362.222656 282.585938 362.417969 282.25 362.558594 C 281.917969 362.695312 281.566406 362.765625 281.207031 362.765625 L 248.429688 362.765625 C 247.535156 362.765625 246.644531 362.851562 245.765625 363.027344 C 244.886719 363.203125 244.035156 363.460938 243.207031 363.804688 C 242.378906 364.148438 241.589844 364.566406 240.84375 365.066406 C 240.101562 365.5625 239.410156 366.128906 238.777344 366.765625 C 238.140625 367.398438 237.574219 368.089844 237.078125 368.832031 C 236.578125 369.578125 236.160156 370.367188 235.816406 371.195312 C 235.472656 372.023438 235.214844 372.875 235.039062 373.753906 C 234.863281 374.632812 234.777344 375.523438 234.777344 376.417969 L 234.777344 409.195312 C 234.777344 409.554688 234.707031 409.902344 234.570312 410.238281 C 234.429688 410.570312 234.234375 410.867188 233.976562 411.121094 C 233.722656 411.378906 233.425781 411.574219 233.09375 411.714844 C 232.757812 411.851562 232.410156 411.921875 232.050781 411.921875 L 199.273438 411.921875 C 198.914062 411.921875 198.566406 411.851562 198.230469 411.714844 C 197.898438 411.574219 197.601562 411.378906 197.347656 411.121094 C 197.089844 410.867188 196.894531 410.570312 196.753906 410.238281 C 196.617188 409.902344 196.546875 409.554688 196.546875 409.195312 L 196.546875 376.417969 C 196.546875 375.523438 196.460938 374.632812 196.285156 373.753906 C 196.109375 372.875 195.851562 372.023438 195.507812 371.195312 C 195.164062 370.367188 194.746094 369.578125 194.246094 368.832031 C 193.75 368.089844 193.183594 367.398438 192.546875 366.765625 C 191.914062 366.128906 191.226562 365.566406 190.480469 365.066406 C 189.734375 364.566406 188.945312 364.148438 188.117188 363.804688 C 187.289062 363.460938 186.4375 363.203125 185.558594 363.027344 C 184.679688 362.851562 183.789062 362.765625 182.894531 362.765625 L 150.117188 362.765625 C 149.757812 362.765625 149.410156 362.695312 149.074219 362.558594 C 148.742188 362.417969 148.445312 362.222656 148.191406 361.964844 C 147.933594 361.710938 147.738281 361.417969 147.597656 361.082031 C 147.460938 360.746094 147.390625 360.398438 147.390625 360.039062 L 147.390625 327.261719 C 147.390625 326.902344 147.460938 326.554688 147.597656 326.21875 C 147.738281 325.886719 147.933594 325.589844 148.191406 325.335938 C 148.445312 325.078125 148.742188 324.882812 149.074219 324.742188 C 149.410156 324.605469 149.757812 324.535156 150.117188 324.535156 L 182.894531 324.535156 C 183.789062 324.535156 184.679688 324.449219 185.558594 324.273438 C 186.4375 324.097656 187.289062 323.839844 188.117188 323.496094 C 188.945312 323.152344 189.734375 322.734375 190.480469 322.234375 C 191.226562 321.738281 191.914062 321.171875 192.546875 320.535156 C 193.183594 319.902344 193.75 319.214844 194.246094 318.46875 C 194.746094 317.722656 195.164062 316.933594 195.507812 316.105469 C 195.851562 315.277344 196.109375 314.425781 196.285156 313.546875 C 196.460938 312.667969 196.546875 311.777344 196.546875 310.882812 L 196.546875 278.105469 C 196.546875 277.746094 196.617188 277.398438 196.753906 277.0625 C 196.894531 276.726562 197.089844 276.433594 197.34375 276.175781 C 197.601562 275.917969 197.894531 275.722656 198.230469 275.582031 C 198.5625 275.445312 198.914062 275.375 199.273438 275.375 L 232.050781 275.375 C 232.410156 275.375 232.761719 275.445312 233.09375 275.582031 C 233.429688 275.722656 233.722656 275.917969 233.980469 276.175781 C 234.234375 276.433594 234.429688 276.726562 234.570312 277.0625 C 234.707031 277.398438 234.777344 277.746094 234.777344 278.105469 L 234.777344 310.882812 C 234.777344 311.777344 234.863281 312.667969 235.039062 313.546875 C 235.214844 314.425781 235.472656 315.277344 235.816406 316.105469 C 236.160156 316.933594 236.578125 317.722656 237.078125 318.46875 C 237.574219 319.214844 238.140625 319.902344 238.777344 320.535156 C 239.410156 321.171875 240.097656 321.738281 240.84375 322.234375 C 241.589844 322.734375 242.378906 323.152344 243.207031 323.496094 C 244.035156 323.839844 244.886719 324.097656 245.765625 324.273438 C 246.644531 324.449219 247.535156 324.535156 248.429688 324.535156 L 281.207031 324.535156 C 281.566406 324.535156 281.917969 324.605469 282.25 324.742188 C 282.585938 324.882812 282.878906 325.078125 283.136719 325.335938 C 283.390625 325.589844 283.585938 325.886719 283.726562 326.21875 C 283.863281 326.554688 283.933594 326.902344 283.933594 327.261719 Z M 283.933594 360.039062 " fill-opacity="1" fill-rule="nonzero"/><path fill="#f0c363" d="M 547.46875 376.964844 C 545.980469 376.949219 544.496094 377.003906 543.011719 377.132812 C 541.53125 377.257812 540.058594 377.460938 538.59375 377.730469 C 537.132812 378.003906 535.6875 378.347656 534.257812 378.761719 C 532.828125 379.171875 531.421875 379.65625 530.039062 380.207031 C 528.65625 380.757812 527.304688 381.375 525.984375 382.058594 C 524.660156 382.742188 523.375 383.488281 522.128906 384.296875 C 520.878906 385.105469 519.671875 385.972656 518.507812 386.902344 C 517.347656 387.828125 516.230469 388.808594 515.164062 389.847656 C 514.09375 390.882812 513.082031 391.96875 512.117188 393.105469 C 511.15625 394.238281 510.253906 395.421875 509.40625 396.644531 C 508.5625 397.867188 507.777344 399.128906 507.054688 400.429688 C 506.332031 401.730469 505.675781 403.066406 505.082031 404.429688 C 504.492188 405.796875 503.96875 407.1875 503.511719 408.601562 C 503.054688 410.019531 502.671875 411.453125 502.355469 412.90625 C 502.039062 414.363281 501.796875 415.828125 501.625 417.304688 C 501.453125 418.785156 501.351562 420.265625 501.324219 421.753906 C 501.300781 423.242188 501.34375 424.726562 501.464844 426.210938 C 501.582031 427.695312 501.773438 429.167969 502.035156 430.632812 C 502.296875 432.097656 502.632812 433.546875 503.035156 434.976562 C 503.441406 436.410156 503.914062 437.816406 504.457031 439.203125 C 505 440.589844 505.605469 441.945312 506.28125 443.269531 C 506.957031 444.597656 507.695312 445.886719 508.496094 447.140625 C 509.296875 448.394531 510.160156 449.605469 511.078125 450.773438 C 512 451.945312 512.972656 453.066406 514.003906 454.140625 C 515.03125 455.214844 516.113281 456.234375 517.242188 457.203125 C 518.371094 458.171875 519.542969 459.085938 520.761719 459.9375 C 521.980469 460.792969 523.238281 461.582031 524.535156 462.3125 C 525.832031 463.046875 527.160156 463.710938 528.523438 464.3125 C 529.882812 464.910156 531.269531 465.445312 532.683594 465.910156 C 534.097656 466.375 535.53125 466.769531 536.980469 467.09375 C 538.433594 467.417969 539.898438 467.671875 541.375 467.851562 C 542.851562 468.035156 544.335938 468.140625 545.824219 468.179688 C 605.796875 467.074219 608.085938 379.53125 547.46875 376.964844 Z M 546.359375 440.875 C 545.765625 440.863281 545.175781 440.820312 544.582031 440.75 C 543.992188 440.679688 543.40625 440.578125 542.828125 440.449219 C 542.246094 440.320312 541.671875 440.164062 541.105469 439.980469 C 540.542969 439.796875 539.984375 439.585938 539.441406 439.347656 C 538.894531 439.109375 538.363281 438.84375 537.84375 438.554688 C 537.324219 438.261719 536.820312 437.949219 536.332031 437.609375 C 535.84375 437.269531 535.375 436.90625 534.921875 436.523438 C 534.46875 436.136719 534.035156 435.730469 533.621094 435.304688 C 533.207031 434.875 532.816406 434.429688 532.445312 433.964844 C 532.074219 433.496094 531.726562 433.015625 531.40625 432.515625 C 531.082031 432.015625 530.785156 431.5 530.511719 430.972656 C 530.238281 430.445312 529.992188 429.902344 529.773438 429.351562 C 529.550781 428.796875 529.359375 428.238281 529.195312 427.664062 C 529.027344 427.09375 528.890625 426.515625 528.78125 425.929688 C 528.671875 425.347656 528.59375 424.757812 528.539062 424.164062 C 528.488281 423.574219 528.464844 422.980469 528.472656 422.382812 C 528.480469 421.789062 528.511719 421.195312 528.578125 420.605469 C 528.640625 420.011719 528.734375 419.425781 528.855469 418.84375 C 528.976562 418.261719 529.125 417.6875 529.304688 417.117188 C 529.480469 416.550781 529.683594 415.992188 529.917969 415.445312 C 530.148438 414.898438 530.40625 414.363281 530.691406 413.839844 C 530.972656 413.316406 531.28125 412.808594 531.617188 412.316406 C 531.949219 411.824219 532.304688 411.347656 532.683594 410.890625 C 533.066406 410.433594 533.464844 409.992188 533.886719 409.574219 C 534.308594 409.15625 534.753906 408.757812 535.214844 408.382812 C 535.675781 408.007812 536.152344 407.65625 536.648438 407.324219 C 537.144531 406.996094 537.652344 406.691406 538.179688 406.414062 C 538.703125 406.132812 539.242188 405.878906 539.792969 405.652344 C 540.339844 405.425781 540.902344 405.226562 541.46875 405.054688 C 542.039062 404.882812 542.617188 404.738281 543.199219 404.621094 C 543.78125 404.503906 544.371094 404.417969 544.960938 404.359375 C 545.554688 404.300781 546.148438 404.269531 546.742188 404.269531 C 547.335938 404.28125 547.929688 404.324219 548.519531 404.394531 C 549.109375 404.46875 549.695312 404.566406 550.273438 404.695312 C 550.855469 404.824219 551.429688 404.984375 551.992188 405.167969 C 552.558594 405.351562 553.113281 405.5625 553.660156 405.800781 C 554.203125 406.039062 554.734375 406.304688 555.253906 406.59375 C 555.773438 406.886719 556.277344 407.199219 556.765625 407.539062 C 557.25 407.878906 557.722656 408.242188 558.175781 408.628906 C 558.628906 409.011719 559.0625 409.417969 559.472656 409.847656 C 559.886719 410.273438 560.277344 410.71875 560.648438 411.1875 C 561.019531 411.652344 561.363281 412.132812 561.6875 412.632812 C 562.011719 413.132812 562.308594 413.648438 562.582031 414.175781 C 562.851562 414.703125 563.097656 415.242188 563.320312 415.796875 C 563.539062 416.347656 563.730469 416.910156 563.898438 417.480469 C 564.0625 418.050781 564.199219 418.628906 564.308594 419.214844 C 564.417969 419.800781 564.496094 420.386719 564.550781 420.980469 C 564.601562 421.570312 564.625 422.164062 564.617188 422.761719 C 564.609375 423.355469 564.574219 423.949219 564.511719 424.539062 C 564.449219 425.128906 564.355469 425.714844 564.234375 426.296875 C 564.113281 426.878906 563.964844 427.457031 563.789062 428.023438 C 563.609375 428.589844 563.40625 429.148438 563.175781 429.695312 C 562.941406 430.242188 562.6875 430.777344 562.402344 431.300781 C 562.117188 431.824219 561.808594 432.332031 561.476562 432.824219 C 561.144531 433.316406 560.789062 433.792969 560.410156 434.25 C 560.027344 434.707031 559.628906 435.144531 559.207031 435.5625 C 558.785156 435.984375 558.34375 436.378906 557.882812 436.757812 C 557.421875 437.132812 556.945312 437.484375 556.449219 437.8125 C 555.953125 438.144531 555.445312 438.445312 554.917969 438.726562 C 554.394531 439.007812 553.855469 439.257812 553.308594 439.488281 C 552.757812 439.714844 552.199219 439.914062 551.628906 440.085938 C 551.0625 440.257812 550.484375 440.402344 549.902344 440.519531 C 549.320312 440.636719 548.730469 440.726562 548.140625 440.785156 C 547.550781 440.84375 546.957031 440.875 546.359375 440.875 Z M 546.359375 440.875 " fill-opacity="1" fill-rule="nonzero"/><path fill="#f0c363" d="M 468.691406 297.902344 C 408.257812 298.417969 407.210938 387.992188 467.75 388.847656 C 469.226562 388.839844 470.699219 388.761719 472.167969 388.613281 C 473.632812 388.464844 475.09375 388.242188 476.539062 387.949219 C 477.984375 387.660156 479.414062 387.296875 480.824219 386.867188 C 482.238281 386.4375 483.625 385.9375 484.988281 385.375 C 486.351562 384.808594 487.683594 384.175781 488.984375 383.480469 C 490.285156 382.785156 491.550781 382.03125 492.777344 381.210938 C 494.003906 380.394531 495.191406 379.515625 496.332031 378.582031 C 497.476562 377.648438 498.570312 376.664062 499.617188 375.621094 C 500.664062 374.582031 501.65625 373.492188 502.597656 372.355469 C 503.539062 371.21875 504.421875 370.039062 505.246094 368.816406 C 506.074219 367.59375 506.835938 366.332031 507.539062 365.035156 C 508.242188 363.738281 508.882812 362.410156 509.457031 361.050781 C 510.027344 359.691406 510.535156 358.308594 510.972656 356.898438 C 511.414062 355.488281 511.78125 354.0625 512.082031 352.617188 C 512.382812 351.171875 512.613281 349.71875 512.769531 348.25 C 512.929688 346.785156 513.015625 345.3125 513.03125 343.835938 C 513.046875 342.359375 512.992188 340.886719 512.863281 339.417969 C 512.734375 337.949219 512.535156 336.488281 512.265625 335.039062 C 511.996094 333.585938 511.65625 332.152344 511.246094 330.734375 C 510.835938 329.316406 510.355469 327.921875 509.8125 326.550781 C 509.265625 325.179688 508.65625 323.839844 507.980469 322.527344 C 507.304688 321.214844 506.566406 319.941406 505.765625 318.703125 C 504.964844 317.460938 504.105469 316.261719 503.1875 315.105469 C 502.273438 313.953125 501.300781 312.84375 500.277344 311.78125 C 499.25 310.71875 498.175781 309.710938 497.054688 308.753906 C 495.929688 307.796875 494.765625 306.894531 493.554688 306.050781 C 492.34375 305.207031 491.09375 304.425781 489.808594 303.703125 C 488.519531 302.980469 487.203125 302.324219 485.851562 301.730469 C 484.5 301.136719 483.121094 300.609375 481.71875 300.148438 C 480.320312 299.691406 478.898438 299.300781 477.457031 298.976562 C 476.015625 298.65625 474.5625 298.40625 473.101562 298.226562 C 471.636719 298.046875 470.164062 297.9375 468.691406 297.902344 Z M 467.34375 361.53125 C 466.757812 361.503906 466.171875 361.449219 465.59375 361.363281 C 465.011719 361.28125 464.4375 361.167969 463.867188 361.027344 C 463.296875 360.890625 462.734375 360.722656 462.179688 360.527344 C 461.625 360.332031 461.082031 360.113281 460.550781 359.867188 C 460.015625 359.621094 459.496094 359.347656 458.992188 359.050781 C 458.484375 358.753906 457.996094 358.433594 457.519531 358.085938 C 457.042969 357.742188 456.585938 357.375 456.148438 356.988281 C 455.707031 356.597656 455.289062 356.1875 454.886719 355.757812 C 454.488281 355.328125 454.109375 354.878906 453.753906 354.414062 C 453.398438 353.949219 453.066406 353.464844 452.753906 352.964844 C 452.445312 352.46875 452.160156 351.953125 451.902344 351.429688 C 451.640625 350.902344 451.40625 350.363281 451.199219 349.816406 C 450.992188 349.265625 450.808594 348.710938 450.65625 348.144531 C 450.503906 347.574219 450.375 347.003906 450.277344 346.425781 C 450.179688 345.847656 450.109375 345.265625 450.066406 344.679688 C 450.023438 344.09375 450.011719 343.507812 450.027344 342.917969 C 450.042969 342.332031 450.085938 341.75 450.15625 341.164062 C 450.226562 340.582031 450.328125 340.003906 450.453125 339.433594 C 450.582031 338.859375 450.738281 338.292969 450.921875 337.734375 C 451.101562 337.179688 451.3125 336.628906 451.546875 336.09375 C 451.78125 335.554688 452.042969 335.03125 452.328125 334.515625 C 452.617188 334.003906 452.925781 333.507812 453.261719 333.023438 C 453.59375 332.542969 453.953125 332.078125 454.332031 331.628906 C 454.710938 331.183594 455.113281 330.753906 455.53125 330.34375 C 455.953125 329.9375 456.394531 329.546875 456.851562 329.183594 C 457.3125 328.816406 457.785156 328.472656 458.277344 328.152344 C 458.769531 327.832031 459.277344 327.535156 459.796875 327.265625 C 460.316406 326.992188 460.851562 326.75 461.394531 326.527344 C 461.941406 326.308594 462.492188 326.117188 463.054688 325.949219 C 463.621094 325.785156 464.1875 325.644531 464.765625 325.535156 C 465.34375 325.425781 465.921875 325.34375 466.507812 325.289062 C 467.089844 325.234375 467.675781 325.207031 468.265625 325.210938 C 468.867188 325.210938 469.46875 325.246094 470.070312 325.308594 C 470.667969 325.367188 471.265625 325.460938 471.855469 325.582031 C 472.445312 325.703125 473.03125 325.855469 473.605469 326.035156 C 474.179688 326.214844 474.746094 326.421875 475.300781 326.660156 C 475.855469 326.894531 476.398438 327.15625 476.929688 327.449219 C 477.457031 327.738281 477.96875 328.054688 478.46875 328.394531 C 478.964844 328.734375 479.445312 329.101562 479.90625 329.488281 C 480.367188 329.878906 480.808594 330.289062 481.226562 330.722656 C 481.648438 331.15625 482.046875 331.605469 482.421875 332.078125 C 482.796875 332.550781 483.148438 333.042969 483.472656 333.546875 C 483.800781 334.054688 484.101562 334.578125 484.375 335.117188 C 484.648438 335.652344 484.894531 336.203125 485.117188 336.765625 C 485.335938 337.324219 485.527344 337.898438 485.6875 338.476562 C 485.851562 339.058594 485.984375 339.644531 486.089844 340.242188 C 486.195312 340.835938 486.269531 341.433594 486.3125 342.035156 C 486.355469 342.636719 486.371094 343.238281 486.355469 343.839844 C 486.339844 344.445312 486.296875 345.046875 486.222656 345.644531 C 486.144531 346.242188 486.042969 346.835938 485.90625 347.421875 C 485.773438 348.011719 485.609375 348.589844 485.417969 349.164062 C 485.226562 349.734375 485.007812 350.296875 484.757812 350.847656 C 484.511719 351.394531 484.234375 351.933594 483.933594 352.453125 C 483.632812 352.976562 483.308594 353.484375 482.957031 353.972656 C 482.601562 354.464844 482.226562 354.933594 481.828125 355.386719 C 481.429688 355.839844 481.011719 356.273438 480.570312 356.683594 C 480.128906 357.09375 479.667969 357.484375 479.1875 357.847656 C 478.707031 358.210938 478.207031 358.554688 477.695312 358.867188 C 477.179688 359.183594 476.652344 359.472656 476.109375 359.734375 C 475.566406 360 475.011719 360.234375 474.445312 360.441406 C 473.878906 360.648438 473.304688 360.828125 472.71875 360.976562 C 472.136719 361.128906 471.542969 361.25 470.949219 361.339844 C 470.351562 361.433594 469.753906 361.496094 469.152344 361.527344 C 468.546875 361.558594 467.945312 361.558594 467.34375 361.53125 Z M 467.34375 361.53125 " fill-opacity="1" fill-rule="nonzero"/><path fill="#f0c363" d="M 626.125 297.902344 C 565.792969 299.441406 564.472656 387.425781 625.488281 388.847656 C 685.425781 387.855469 685.457031 299.855469 626.125 297.902344 Z M 625.050781 361.53125 C 624.460938 361.515625 623.871094 361.472656 623.285156 361.398438 C 622.695312 361.328125 622.113281 361.226562 621.535156 361.09375 C 620.960938 360.964844 620.390625 360.808594 619.828125 360.621094 C 619.265625 360.4375 618.714844 360.222656 618.171875 359.984375 C 617.632812 359.746094 617.101562 359.480469 616.585938 359.1875 C 616.074219 358.898438 615.574219 358.582031 615.085938 358.242188 C 614.601562 357.902344 614.136719 357.539062 613.6875 357.152344 C 613.238281 356.769531 612.808594 356.363281 612.398438 355.933594 C 611.992188 355.507812 611.601562 355.058594 611.238281 354.59375 C 610.871094 354.128906 610.53125 353.648438 610.210938 353.148438 C 609.894531 352.648438 609.597656 352.136719 609.332031 351.609375 C 609.0625 351.082031 608.820312 350.542969 608.605469 349.992188 C 608.390625 349.4375 608.203125 348.878906 608.039062 348.308594 C 607.878906 347.738281 607.746094 347.164062 607.640625 346.582031 C 607.539062 346 607.460938 345.414062 607.414062 344.820312 C 607.367188 344.230469 607.347656 343.640625 607.359375 343.050781 C 607.371094 342.457031 607.410156 341.867188 607.476562 341.28125 C 607.546875 340.691406 607.644531 340.109375 607.769531 339.53125 C 607.894531 338.953125 608.046875 338.378906 608.226562 337.816406 C 608.410156 337.253906 608.617188 336.699219 608.851562 336.15625 C 609.085938 335.613281 609.347656 335.082031 609.636719 334.566406 C 609.921875 334.046875 610.234375 333.546875 610.570312 333.058594 C 610.90625 332.570312 611.265625 332.101562 611.648438 331.648438 C 612.027344 331.199219 612.433594 330.765625 612.855469 330.351562 C 613.28125 329.941406 613.722656 329.546875 614.1875 329.179688 C 614.648438 328.808594 615.128906 328.464844 615.625 328.140625 C 616.121094 327.820312 616.632812 327.523438 617.15625 327.25 C 617.683594 326.976562 618.21875 326.730469 618.769531 326.511719 C 619.320312 326.289062 619.878906 326.097656 620.445312 325.933594 C 621.015625 325.765625 621.589844 325.628906 622.171875 325.519531 C 622.753906 325.410156 623.339844 325.332031 623.929688 325.277344 C 624.515625 325.226562 625.109375 325.203125 625.699219 325.210938 C 626.292969 325.226562 626.882812 325.269531 627.46875 325.34375 C 628.054688 325.414062 628.636719 325.515625 629.214844 325.644531 C 629.792969 325.777344 630.363281 325.933594 630.925781 326.117188 C 631.488281 326.304688 632.039062 326.515625 632.582031 326.757812 C 633.121094 326.996094 633.648438 327.261719 634.164062 327.550781 C 634.679688 327.84375 635.179688 328.160156 635.664062 328.5 C 636.148438 328.839844 636.617188 329.203125 637.066406 329.585938 C 637.515625 329.972656 637.941406 330.378906 638.351562 330.808594 C 638.761719 331.234375 639.148438 331.679688 639.515625 332.148438 C 639.878906 332.613281 640.222656 333.09375 640.542969 333.59375 C 640.859375 334.09375 641.152344 334.605469 641.421875 335.132812 C 641.691406 335.660156 641.933594 336.199219 642.148438 336.75 C 642.363281 337.300781 642.550781 337.863281 642.710938 338.433594 C 642.875 339 643.003906 339.578125 643.109375 340.160156 C 643.214844 340.742188 643.289062 341.328125 643.335938 341.917969 C 643.386719 342.507812 643.402344 343.101562 643.394531 343.691406 C 643.382812 344.285156 643.34375 344.875 643.273438 345.460938 C 643.207031 346.050781 643.109375 346.632812 642.984375 347.210938 C 642.859375 347.789062 642.707031 348.359375 642.523438 348.925781 C 642.34375 349.488281 642.136719 350.039062 641.902344 350.585938 C 641.664062 351.128906 641.40625 351.65625 641.117188 352.175781 C 640.832031 352.691406 640.519531 353.195312 640.183594 353.683594 C 639.847656 354.167969 639.488281 354.640625 639.105469 355.089844 C 638.722656 355.542969 638.320312 355.976562 637.898438 356.386719 C 637.472656 356.800781 637.027344 357.191406 636.566406 357.5625 C 636.105469 357.929688 635.625 358.277344 635.128906 358.597656 C 634.632812 358.921875 634.121094 359.21875 633.597656 359.492188 C 633.070312 359.765625 632.53125 360.011719 631.984375 360.230469 C 631.433594 360.449219 630.875 360.644531 630.308594 360.808594 C 629.738281 360.972656 629.164062 361.113281 628.582031 361.222656 C 628 361.328125 627.414062 361.410156 626.824219 361.460938 C 626.234375 361.515625 625.644531 361.539062 625.050781 361.53125 Z M 625.050781 361.53125 " fill-opacity="1" fill-rule="nonzero"/><path fill="#f0c363" d="M 546.203125 310.601562 C 547.691406 310.597656 549.175781 310.519531 550.65625 310.371094 C 552.136719 310.222656 553.605469 310.003906 555.066406 309.710938 C 556.523438 309.421875 557.964844 309.058594 559.390625 308.625 C 560.816406 308.195312 562.214844 307.695312 563.589844 307.125 C 564.964844 306.558594 566.3125 305.925781 567.625 305.226562 C 568.9375 304.527344 570.214844 303.765625 571.457031 302.941406 C 572.695312 302.117188 573.890625 301.238281 575.046875 300.296875 C 576.199219 299.359375 577.304688 298.363281 578.363281 297.316406 C 579.421875 296.269531 580.425781 295.171875 581.375 294.027344 C 582.324219 292.882812 583.21875 291.695312 584.054688 290.464844 C 584.890625 289.230469 585.664062 287.960938 586.375 286.65625 C 587.085938 285.347656 587.730469 284.007812 588.3125 282.636719 C 588.894531 281.269531 589.410156 279.875 589.855469 278.453125 C 590.300781 277.035156 590.675781 275.59375 590.980469 274.136719 C 591.285156 272.683594 591.519531 271.214844 591.683594 269.734375 C 591.847656 268.253906 591.9375 266.773438 591.957031 265.285156 C 591.972656 263.796875 591.921875 262.308594 591.792969 260.828125 C 591.667969 259.34375 591.46875 257.871094 591.199219 256.40625 C 590.929688 254.941406 590.589844 253.496094 590.179688 252.066406 C 589.769531 250.636719 589.292969 249.226562 588.746094 247.84375 C 588.199219 246.460938 587.585938 245.105469 586.90625 243.78125 C 586.226562 242.457031 585.484375 241.167969 584.679688 239.914062 C 583.878906 238.664062 583.015625 237.453125 582.09375 236.285156 C 581.171875 235.117188 580.195312 233.996094 579.164062 232.921875 C 578.132812 231.847656 577.050781 230.828125 575.921875 229.859375 C 574.789062 228.894531 573.613281 227.980469 572.394531 227.128906 C 571.175781 226.273438 569.917969 225.480469 568.625 224.75 C 567.328125 224.019531 566 223.351562 564.636719 222.75 C 563.277344 222.148438 561.890625 221.613281 560.476562 221.144531 C 559.0625 220.679688 557.632812 220.28125 556.179688 219.953125 C 554.726562 219.625 553.261719 219.367188 551.785156 219.183594 C 550.308594 218.996094 548.828125 218.882812 547.339844 218.84375 C 545.851562 218.847656 544.367188 218.925781 542.886719 219.074219 C 541.40625 219.222656 539.9375 219.441406 538.476562 219.734375 C 537.015625 220.023438 535.574219 220.386719 534.152344 220.820312 C 532.726562 221.25 531.328125 221.75 529.953125 222.320312 C 528.574219 222.886719 527.230469 223.519531 525.917969 224.21875 C 524.601562 224.917969 523.328125 225.679688 522.085938 226.503906 C 520.847656 227.328125 519.648438 228.207031 518.496094 229.148438 C 517.339844 230.085938 516.234375 231.082031 515.179688 232.128906 C 514.121094 233.175781 513.117188 234.273438 512.167969 235.417969 C 511.214844 236.5625 510.324219 237.75 509.488281 238.980469 C 508.652344 240.214844 507.878906 241.484375 507.167969 242.792969 C 506.457031 244.097656 505.808594 245.4375 505.226562 246.808594 C 504.648438 248.175781 504.132812 249.570312 503.6875 250.992188 C 503.242188 252.410156 502.867188 253.851562 502.5625 255.308594 C 502.253906 256.761719 502.019531 258.230469 501.859375 259.710938 C 501.695312 261.191406 501.605469 262.671875 501.585938 264.160156 C 501.566406 265.648438 501.621094 267.136719 501.746094 268.617188 C 501.875 270.101562 502.070312 271.574219 502.339844 273.039062 C 502.609375 274.503906 502.949219 275.949219 503.359375 277.378906 C 503.769531 278.808594 504.25 280.21875 504.796875 281.601562 C 505.34375 282.984375 505.957031 284.339844 506.636719 285.664062 C 507.3125 286.988281 508.054688 288.277344 508.859375 289.53125 C 509.664062 290.78125 510.527344 291.992188 511.449219 293.160156 C 512.371094 294.328125 513.347656 295.449219 514.378906 296.523438 C 515.410156 297.597656 516.492188 298.617188 517.621094 299.585938 C 518.75 300.550781 519.925781 301.464844 521.144531 302.316406 C 522.363281 303.171875 523.621094 303.964844 524.917969 304.695312 C 526.214844 305.425781 527.542969 306.09375 528.902344 306.695312 C 530.265625 307.296875 531.652344 307.832031 533.066406 308.300781 C 534.476562 308.765625 535.910156 309.164062 537.363281 309.492188 C 538.8125 309.820312 540.277344 310.078125 541.753906 310.261719 C 543.230469 310.449219 544.714844 310.5625 546.203125 310.601562 Z M 534 251.617188 C 534.648438 251 535.335938 250.433594 536.0625 249.917969 C 536.792969 249.398438 537.554688 248.9375 538.351562 248.53125 C 539.144531 248.125 539.96875 247.78125 540.8125 247.492188 C 541.660156 247.207031 542.523438 246.980469 543.402344 246.820312 C 544.28125 246.660156 545.167969 246.5625 546.058594 246.53125 C 546.953125 246.5 547.84375 246.53125 548.730469 246.628906 C 549.621094 246.726562 550.496094 246.886719 551.363281 247.109375 C 552.226562 247.335938 553.070312 247.621094 553.894531 247.96875 C 554.714844 248.316406 555.511719 248.722656 556.273438 249.1875 C 557.039062 249.648438 557.765625 250.164062 558.453125 250.734375 C 559.144531 251.304688 559.789062 251.917969 560.386719 252.582031 C 560.988281 253.246094 561.535156 253.945312 562.03125 254.6875 C 562.53125 255.433594 562.972656 256.207031 563.355469 257.011719 C 563.742188 257.820312 564.066406 258.648438 564.328125 259.503906 C 564.59375 260.355469 564.792969 261.226562 564.929688 262.109375 C 565.066406 262.992188 565.140625 263.878906 565.148438 264.773438 C 565.101562 265.976562 564.941406 267.160156 564.675781 268.332031 C 564.40625 269.503906 564.03125 270.640625 563.546875 271.742188 C 563.066406 272.84375 562.488281 273.890625 561.808594 274.886719 C 561.132812 275.878906 560.367188 276.800781 559.519531 277.652344 C 558.667969 278.5 557.75 279.265625 556.757812 279.945312 C 555.761719 280.621094 554.714844 281.203125 553.617188 281.6875 C 552.515625 282.167969 551.378906 282.546875 550.207031 282.816406 C 549.035156 283.085938 547.847656 283.246094 546.648438 283.292969 C 545.742188 283.273438 544.847656 283.1875 543.957031 283.035156 C 543.066406 282.882812 542.191406 282.667969 541.332031 282.386719 C 540.472656 282.105469 539.636719 281.765625 538.828125 281.363281 C 538.019531 280.960938 537.242188 280.503906 536.5 279.988281 C 535.757812 279.472656 535.058594 278.90625 534.398438 278.289062 C 533.738281 277.667969 533.128906 277.007812 532.566406 276.300781 C 532.003906 275.59375 531.496094 274.847656 531.039062 274.066406 C 530.585938 273.285156 530.191406 272.472656 529.859375 271.636719 C 529.523438 270.796875 529.25 269.9375 529.039062 269.058594 C 528.832031 268.179688 528.6875 267.289062 528.609375 266.386719 C 528.527344 265.488281 528.515625 264.585938 528.566406 263.683594 C 528.621094 262.78125 528.738281 261.890625 528.921875 261.003906 C 529.105469 260.121094 529.351562 259.253906 529.660156 258.402344 C 529.96875 257.554688 530.339844 256.734375 530.769531 255.9375 C 531.199219 255.144531 531.6875 254.382812 532.226562 253.660156 C 532.769531 252.9375 533.359375 252.257812 534 251.617188 Z M 534 251.617188 " fill-opacity="1" fill-rule="nonzero"/><path fill="#f0c363" d="M 758.132812 586.132812 C 779.226562 507.429688 768.726562 438.191406 746.304688 342.8125 C 723.976562 246.605469 660.855469 113.742188 535.90625 139.042969 C 475.800781 148.035156 404.292969 179.9375 346.875 163.554688 C 314.0625 155.277344 280.996094 148.402344 248.410156 141.332031 C 62.339844 100.652344 12.035156 351.5 4.507812 502.3125 C -0.148438 603.261719 51.296875 686.898438 159.839844 628.320312 C 192.769531 609.8125 222.867188 587.488281 250.128906 561.347656 C 254.515625 557.015625 259.152344 552.96875 264.039062 549.207031 C 268.925781 545.445312 274.023438 542 279.335938 538.871094 C 284.648438 535.738281 290.136719 532.949219 295.792969 530.496094 C 301.449219 528.042969 307.238281 525.949219 313.15625 524.214844 C 384.683594 506.230469 468.652344 508.3125 527.226562 564.25 C 582.117188 619.597656 714.5 707.597656 758.132812 586.132812 Z M 655.167969 616.007812 C 572.636719 591.1875 529.527344 503.3125 445.921875 492.5625 C 370.019531 480.617188 291.078125 484.949219 231.597656 541.292969 C 206.039062 565.839844 177.828125 586.824219 146.964844 604.238281 C -43.066406 701.640625 50.15625 314.511719 88.582031 254.367188 C 153.230469 129.417969 225.273438 163.664062 340.148438 190.023438 C 378.605469 201.53125 430.042969 192.921875 473.929688 180.6875 C 544.253906 161.535156 612.34375 146.332031 661.539062 215.855469 C 723.769531 282.050781 810.296875 662.507812 655.167969 616.007812 Z M 655.167969 616.007812 " fill-opacity="1" fill-rule="nonzero"/></svg>